<svg xmlns="http://www.w3.org/2000/svg" id="Layer_1" viewBox="0 0 261 50">
  <style type="text/css">
    
	.st0{fill:#454547;}
	.st1{fill:url(#SVGID_1_);}

  </style>
    <path class="st0" d="M187.2 17.2h6.8c3 0 4.6 1.6 4.6 4 0 2.1-1.3 3.7-3.8 4l5 7.2h-1.3l-5-7.1h-5.3v7.1h-1.1V17.2zM193.9 24.3c2.3 0 3.6-1.1 3.6-3.1 0-1.9-1.3-3-3.6-3h-5.6v6.1H193.9z"/>
    <path class="st0" d="M206 17.2h1.1v15.2H206V17.2z"/>
    <path class="st0" d="M213.4 24.8c0-4.6 3.3-7.9 7.6-7.9 1.9 0 3.6 0.5 5 1.6v1.2c-1.4-1.1-3.1-1.7-4.9-1.7 -3.7 0-6.6 2.8-6.6 6.8 0 4 2.9 6.8 6.5 6.8 1.9 0 3.6-0.6 4.7-1.8v-6.2h1.1v6.6c-1.3 1.4-3.3 2.4-5.8 2.4C216.8 32.6 213.4 29.4 213.4 24.8z"/>
    <path class="st0" d="M233.6 17.2h1.1v15.2h-1.1V17.2z"/>
    <path class="st0" d="M241.7 17.2h1l10.2 13.3V17.2h1.1v15.2h-0.9l-10.3-13.3v13.3h-1.1V17.2z"/>
  <radialGradient id="SVGID_1_" cx="17.2" cy="24.3" r="9.7" gradientUnits="userSpaceOnUse">
    <stop offset="0" stop-color="#FFF091"/>
    <stop offset="0.5354" stop-color="#FFED90"/>
    <stop offset="0.8683" stop-color="#FFE58E"/>
    <stop offset="1" stop-color="#FFDF8C"/>
  </radialGradient>
  <circle class="st1" cx="17.2" cy="24.3" r="9.7"/>
      <path class="st0" d="M34 17h1.1v15.5H34V17z"/>
      <path class="st0" d="M39.8 17H41l5.9 7.8 5.9-7.8h1.1v15.5h-1.1V18.8l-5.6 7.3h-0.7l-5.6-7.3v13.8h-1.1V17z"/>
      <path class="st0" d="M58.6 17h1.1c0 0 1.8 2 3.1 3.8 1.6 2.2 2.6 4.2 2.6 4.2l6.2-8h1.1v15.5h-1.1V18.8l-5.8 7.5H65c0 0-1.2-2.3-2.7-4.5 -1.5-2.2-2.6-3.4-2.6-3.4v14.1h-1.1V17z"/>
      <path class="st0" d="M76.6 24.8c0-4.6 3.3-8 7.7-8 4.4 0 7.7 3.4 7.7 8 0 4.6-3.3 8-7.7 8C79.9 32.8 76.6 29.4 76.6 24.8zM90.9 24.8c0-4-2.9-6.9-6.6-6.9 -3.7 0-6.6 2.9-6.6 6.9 0 4 2.9 7 6.6 7C88 31.8 90.9 28.8 90.9 24.8z"/>
      <path class="st0" d="M96 17h6.9c3 0 4.7 1.7 4.7 4.1 0 2.2-1.3 3.8-3.8 4.1l5.1 7.3h-1.3l-5-7.2h-5.4v7.2H96V17zM102.8 24.3c2.3 0 3.7-1.1 3.7-3.1 0-2-1.4-3.1-3.7-3.1h-5.7v6.2H102.8z"/>
      <path class="st0" d="M115.6 18.1h-5.5v-1h12.2v1h-5.5v14.5h-1.1V18.1z"/>
      <path class="st0" d="M128.5 17h1l7 15.6h-1.1l-2-4.5h-8.6l-2 4.5h-1.1L128.5 17zM133 27l-3.9-8.6 -3.9 8.6H133z"/>
      <path class="st0" d="M139.6 17h1.1v14.5h9v1h-10.1V17z"/>
  <circle class="st0" cx="170.7" cy="24.8" r="9.4"/>
</svg>